<?xml version="1.0" standalone="no"?>
<!DOCTYPE svg PUBLIC "-//W3C//DTD SVG 20010904//EN"
 "http://www.w3.org/TR/2001/REC-SVG-20010904/DTD/svg10.dtd">
<svg version="1.0" xmlns="http://www.w3.org/2000/svg"
 width="53.000000pt" height="59.000000pt" viewBox="0 0 53.000000 59.000000"
 preserveAspectRatio="xMidYMid meet">
<metadata>
Created by potrace 1.15, written by Peter Selinger 2001-2017
</metadata>
<g transform="translate(0.000000,59.000000) scale(0.100000,-0.100000)"
fill="#000000" stroke="none">
<path d="M136 566 c-22 -8 -53 -29 -70 -47 l-31 -33 37 32 c42 35 93 52 155
52 53 0 64 -16 17 -25 -20 -3 -34 -9 -31 -11 3 -3 24 0 48 6 42 12 44 11 71
-19 17 -19 28 -43 28 -61 0 -50 -85 -130 -139 -130 -38 0 -71 -23 -98 -69 -15
-25 -28 -53 -29 -61 -1 -8 -5 -23 -9 -34 -7 -15 -5 -17 12 -12 26 8 39 -9 46
-62 10 -78 55 -100 134 -67 19 8 47 15 62 16 22 0 23 1 7 8 -14 5 -16 10 -8
15 7 4 17 17 23 29 8 15 2 11 -18 -10 -17 -19 -41 -33 -54 -33 -20 0 -109 45
-109 55 0 3 21 2 46 -2 26 -3 68 0 99 7 49 12 55 17 70 52 19 49 19 71 -1 133
-9 28 -18 56 -20 63 -2 6 -12 12 -23 12 -19 0 -19 2 5 38 30 43 27 82 -8 119
l-21 23 41 0 c32 0 49 -7 78 -32 25 -22 33 -26 24 -12 -27 44 -57 52 -240 69
-35 3 -69 0 -94 -9z m257 -323 c8 -43 -26 -109 -64 -122 -70 -24 -154 -8 -169
34 -6 16 -4 21 12 22 39 3 90 26 134 59 l44 34 9 -22 c22 -59 24 -49 4 22 -6
22 -4 23 9 12 9 -7 18 -24 21 -39z"/>
</g>
</svg>
