<svg id="Capa_1" enable-background="new 0 0 512 512" height="512" viewBox="0 0 512 512" width="512" xmlns="http://www.w3.org/2000/svg"><g><path d="m241 447.825v40.45c0 8.284 6.716 15 15 15l6-30.429-6-40.021c-8.284 0-15 6.716-15 15z" fill="#e1e6f0"/><path d="m271 488.275v-40.45c0-8.284-6.716-15-15-15v70.45c8.284 0 15-6.715 15-15z" fill="#cfd7e6"/><path d="m37.59 11.768c-8.284 0-15 6.716-15 15v420.033c0 8.284 6.716 15 15 15h218.41l10-203.83-10-246.203z" fill="#f9f9f9"/><path d="m474.41 11.768h-218.41v450.033h218.41c8.284 0 15-6.716 15-15v-420.033c0-8.284-6.716-15-15-15z" fill="#e1e6f0"/><g><path d="m113.439 390.74c-8.284 0-15-6.716-15-15v-117.473c0-8.284 6.716-15 15-15s15 6.716 15 15v117.473c0 8.284-6.716 15-15 15z" fill="#ff7f66"/></g><g><path d="m176.049 390.74c-8.284 0-15-6.716-15-15v-47.708c0-8.284 6.716-15 15-15s15 6.716 15 15v47.708c0 8.284-6.716 15-15 15z" fill="#5bc980"/></g><g><path d="m204.788 390.74h-120.088c-8.284 0-15-6.716-15-15s6.716-15 15-15h120.088c8.284 0 15 6.716 15 15s-6.716 15-15 15z" fill="#e1e6f0"/></g><g><path d="m376.022 225.285c-25.25 0-45.793-20.543-45.793-45.794 0-25.25 20.543-45.793 45.793-45.793 25.251 0 45.794 20.543 45.794 45.793 0 25.251-20.543 45.794-45.794 45.794z" fill="#6aa9ff"/></g><g><path d="m406.816 329.288h-61.587c-8.284 0-15-6.716-15-15s6.716-15 15-15h61.587c8.284 0 15 6.716 15 15s-6.715 15-15 15z" fill="#4d5e80"/></g><path d="m37.59 11.768c-8.284 0-15 6.716-15 15v74.453h233.41l39-44.726-39-44.726h-218.41z" fill="#4d5e80"/><path d="m489.41 26.768c0-8.284-6.716-15-15-15h-218.41v89.453h233.41z" fill="#3d4566"/><g><path d="m406.816 390.74h-41.104c-8.284 0-15-6.716-15-15s6.716-15 15-15h41.104c8.284 0 15 6.716 15 15s-6.715 15-15 15z" fill="#4d5e80"/></g><g><path d="m204.778 212.686c-2.141 0-4.314-.46-6.379-1.432l-22.537-10.611-18.161 8.051c-6.515 2.888-14.164.793-18.298-5.013l-20.919-29.38-21.69 29.555c-4.901 6.678-14.289 8.119-20.968 3.218s-8.119-14.289-3.218-20.968l33.967-46.284c2.827-3.852 7.319-6.125 12.092-6.125h.108c4.814.035 9.319 2.377 12.111 6.299l25.852 36.308 13.232-5.866c3.979-1.764 8.529-1.712 12.469.142l28.739 13.531c7.495 3.529 10.71 12.466 7.182 19.961-2.557 5.429-7.953 8.614-13.582 8.614z" fill="#e64560"/></g><path d="m15 8.725c-8.284 0-15 6.716-15 15s6.716 15 15 15h241l8-15-8-15z" fill="#b36859"/><path d="m497 8.725h-241v30h241c8.284 0 15-6.716 15-15s-6.716-15-15-15z" fill="#99453d"/></g></svg>